<svg width="20" height="19" viewBox="0 0 20 19" fill="none" xmlns="http://www.w3.org/2000/svg">
<path d="M8.88862 0.531712C6.88743 0.782752 5.10787 1.57161 3.55912 2.8983C2.8022 3.54377 1.99731 4.50735 1.45773 5.4129C0.996516 6.19272 0.539789 7.29086 0.313467 8.19178C-0.543661 11.5848 0.391833 15.3723 2.69322 17.8375C3.08913 18.2588 3.28056 18.3618 3.57647 18.3036C3.95504 18.2319 4.30748 17.7792 4.30748 17.3713C4.30748 17.1115 4.2683 17.0442 3.78973 16.5064C2.92832 15.5428 2.23649 14.198 1.90589 12.8579C1.67099 11.8985 1.60569 10.5001 1.74936 9.53634C2.51935 4.43565 7.31375 1.18601 12.1516 2.48578C14.44 3.09993 16.3848 4.73126 17.4593 6.93659C19.0776 10.2579 18.4687 14.1574 15.9105 16.8646C15.6016 17.1918 15.5234 17.3352 15.5234 17.5728C15.5277 17.9224 15.8758 18.3616 16.2283 18.4558C16.5546 18.55 16.7026 18.4693 17.2203 17.9268C18.5952 16.4837 19.4956 14.6593 19.8829 12.5391C20.009 11.8398 20.0395 10.289 19.9437 9.50018C19.8001 8.33959 19.4956 7.31777 18.9821 6.24192C18.4383 5.09899 17.8423 4.26072 16.9548 3.37325C15.345 1.77303 13.2916 0.778125 11.0772 0.531501C10.5855 0.473261 9.33249 0.477888 8.88862 0.531712Z" fill="black"/>
<path d="M9.0497 3.31497C7.94033 3.45837 6.70036 3.96486 5.72139 4.68203C5.25589 5.01822 4.43366 5.86973 4.09856 6.35394C2.8194 8.20057 2.39308 10.4194 2.90654 12.5797C3.18491 13.7451 3.67225 14.7221 4.44223 15.6678C4.86855 16.1968 5.07753 16.3133 5.42977 16.2147C5.78649 16.1161 6.12159 15.6769 6.12588 15.3047C6.12588 15.085 6.09547 15.0268 5.69527 14.5338C4.92957 13.5746 4.49019 12.4899 4.39448 11.311C4.15081 8.33493 6.04343 5.71268 8.87991 5.09412C9.46296 4.96418 10.5374 4.95514 11.064 5.07162C12.2735 5.34558 13.1653 5.84303 14.0051 6.708C15.0276 7.77019 15.5627 9.02076 15.6365 10.5224C15.7149 12.0597 15.1753 13.5702 14.1355 14.7491C13.8353 15.0897 13.7831 15.1973 13.7831 15.4572C13.7831 15.8873 14.2225 16.3491 14.6314 16.3491C14.8708 16.3491 15.0447 16.2505 15.3363 15.9412C16.2196 14.9999 16.8896 13.6688 17.1853 12.2702C17.2679 11.8579 17.281 11.6741 17.281 10.7911C17.281 9.66161 17.2287 9.28505 16.933 8.37529C16.0716 5.70868 13.7572 3.72749 11.0423 3.32843C10.5419 3.25673 9.55439 3.2479 9.0497 3.31497Z" fill="black"/>
<path d="M9.1062 6.12983C8.10112 6.35396 7.34848 6.78876 6.65686 7.54167C5.82585 8.45163 5.42137 9.49132 5.41259 10.7465C5.40831 11.4189 5.46055 11.782 5.65626 12.3602C5.88238 13.0235 6.40462 13.8797 6.70481 14.0679C7.11807 14.3233 7.76194 13.9962 7.9099 13.4537C7.98826 13.1758 7.9403 13.0055 7.68806 12.6514C7.22685 12.0059 7.06603 11.4637 7.09195 10.6567C7.12236 9.81406 7.36603 9.24932 7.95336 8.63981C8.51458 8.0572 9.19334 7.77021 9.99823 7.77021C10.8466 7.77021 11.447 8.02566 12.0474 8.63981C12.6086 9.20896 12.8872 9.80964 12.9437 10.5672C12.9914 11.2171 12.787 11.9925 12.4347 12.4945C12.0345 13.0639 12.0257 13.0772 12.0257 13.2969C12.0257 13.8795 12.6696 14.386 13.1439 14.1799C13.5878 13.9917 14.2316 12.9203 14.4884 11.9433C14.571 11.6296 14.5841 11.4593 14.5883 10.7913C14.5883 10.0788 14.5753 9.9667 14.4708 9.5811C14.0053 7.85999 12.7872 6.63191 11.086 6.16557C10.5941 6.03122 9.62395 6.01335 9.1062 6.12983Z" fill="black"/>
<path d="M9.51966 8.85508C9.17599 8.94927 8.91048 9.10612 8.65396 9.36599C8.23192 9.79616 8.06662 10.24 8.09274 10.8811C8.1058 11.2442 8.12764 11.3516 8.24498 11.6073C8.63661 12.4678 9.51108 12.9339 10.3811 12.7458C10.7813 12.6606 11.0902 12.4903 11.3774 12.1989C12.1343 11.4279 12.1388 10.1773 11.3817 9.38849C11.1076 9.1017 10.729 8.89545 10.3507 8.81934C10.0329 8.75647 9.85455 8.7653 9.51966 8.85508Z" fill="black"/>
</svg>
