<svg width="20" height="20" viewBox="0 0 20 20" fill="none" xmlns="http://www.w3.org/2000/svg">
<path d="M19.0625 12.5C19.0625 12.7486 18.9637 12.9871 18.7879 13.1629C18.6121 13.3387 18.3736 13.4375 18.125 13.4375H15.6773L17.057 15.7726C17.1214 15.8787 17.1641 15.9964 17.1826 16.1191C17.2011 16.2417 17.1951 16.3669 17.165 16.4872C17.1348 16.6075 17.081 16.7206 17.0068 16.82C16.9326 16.9194 16.8394 17.0031 16.7326 17.0662C16.6258 17.1293 16.5076 17.1706 16.3847 17.1877C16.2618 17.2048 16.1368 17.1973 16.0169 17.1657C15.8969 17.1341 15.7844 17.079 15.6859 17.0036C15.5874 16.9283 15.5048 16.8341 15.443 16.7265L11.0078 9.21873C10.8884 9.00506 10.8573 8.75314 10.9211 8.51683C10.9849 8.28051 11.1387 8.07854 11.3495 7.95407C11.5602 7.8296 11.8113 7.79251 12.0491 7.85073C12.2869 7.90894 12.4924 8.05784 12.6219 8.26561L14.5687 11.5625H18.125C18.3736 11.5625 18.6121 11.6613 18.7879 11.8371C18.9637 12.0129 19.0625 12.2513 19.0625 12.5ZM10.4023 11.5625H7.60859L12.682 2.97733C12.7464 2.87129 12.7891 2.75353 12.8076 2.63088C12.8261 2.50822 12.8201 2.38311 12.79 2.26279C12.7598 2.14247 12.706 2.02934 12.6318 1.92994C12.5576 1.83055 12.4644 1.74687 12.3576 1.68376C12.2508 1.62064 12.1326 1.57935 12.0097 1.56227C11.8868 1.54519 11.7618 1.55267 11.6419 1.58426C11.5219 1.61585 11.4094 1.67094 11.3109 1.74632C11.2124 1.82171 11.1298 1.91589 11.068 2.02342L10 3.82811L8.93203 2.02342C8.87018 1.91589 8.78761 1.82171 8.6891 1.74632C8.59059 1.67094 8.4781 1.61585 8.35814 1.58426C8.23819 1.55267 8.11315 1.54519 7.99029 1.56227C7.86743 1.57935 7.74917 1.62064 7.64238 1.68376C7.53559 1.74687 7.44239 1.83055 7.36817 1.92994C7.29396 2.02934 7.2402 2.14247 7.21003 2.26279C7.17985 2.38311 7.17386 2.50822 7.19239 2.63088C7.21091 2.75353 7.2536 2.87129 7.31797 2.97733L8.91094 5.67342L5.43125 11.5625H1.875C1.62636 11.5625 1.3879 11.6613 1.21209 11.8371C1.03627 12.0129 0.9375 12.2513 0.9375 12.5C0.9375 12.7486 1.03627 12.9871 1.21209 13.1629C1.3879 13.3387 1.62636 13.4375 1.875 13.4375H10.4023C10.651 13.4375 10.8894 13.3387 11.0653 13.1629C11.2411 12.9871 11.3398 12.7486 11.3398 12.5C11.3398 12.2513 11.2411 12.0129 11.0653 11.8371C10.8894 11.6613 10.651 11.5625 10.4023 11.5625ZM4.59609 14.818C4.38213 14.6916 4.12675 14.6553 3.88606 14.7171C3.64537 14.7789 3.43907 14.9338 3.3125 15.1476L2.94297 15.7726C2.8786 15.8787 2.83591 15.9964 2.81739 16.1191C2.79886 16.2417 2.80485 16.3669 2.83503 16.4872C2.8652 16.6075 2.91896 16.7206 2.99317 16.82C3.06739 16.9194 3.16059 17.0031 3.26738 17.0662C3.37417 17.1293 3.49243 17.1706 3.61529 17.1877C3.73815 17.2048 3.86319 17.1973 3.98314 17.1657C4.1031 17.1341 4.21559 17.079 4.3141 17.0036C4.41261 16.9283 4.49518 16.8341 4.55703 16.7265L4.92656 16.1015C5.05288 15.8875 5.08903 15.632 5.02706 15.3913C4.96509 15.1506 4.81008 14.9444 4.59609 14.818Z" fill="#0071f6"/>
</svg>
