<svg width="20" height="20" viewBox="0 0 20 20" fill="none" xmlns="http://www.w3.org/2000/svg">
<path d="M10.909 5C12.793 5 14.326 6.598 14.326 8.561C14.326 8.697 14.314 8.851 14.289 9.045L14.083 10.639C14.04 10.971 14.269 11.289 14.611 11.292L16.261 11.302C17.219 11.308 18 12.137 18 13.15C18 14.17 17.215 15 16.25 15H4.16701C2.97201 15 2.00001 13.978 2.00001 12.722C2.00001 11.809 2.51901 10.987 3.32301 10.627L3.97401 10.336C4.20401 10.233 4.48201 9.905 4.49001 9.561L4.50601 8.847C4.51801 8.312 4.92701 7.877 5.41601 7.877C5.44801 7.877 5.51001 7.883 5.62301 7.912L6.66201 8.176C6.92701 8.243 7.26801 8.11 7.39201 7.867L7.89501 6.886C8.49301 5.723 9.64801 5 10.909 5ZM10.909 3C8.82801 3 7.02301 4.207 6.11601 5.974C5.88792 5.91301 5.6531 5.88076 5.41701 5.878C3.83001 5.878 2.54401 7.182 2.50701 8.802C1.75557 9.14399 1.11908 9.69602 0.674266 10.3916C0.229448 11.0871 -0.0047121 11.8964 8.96974e-06 12.722C8.96974e-06 15.085 1.86501 17 4.16701 17H16.25C18.321 17 20 15.276 20 13.15C20 11.032 18.333 9.315 16.272 9.302C16.303 9.059 16.325 8.813 16.325 8.561C16.326 5.49 13.901 3 10.909 3Z" fill="#a4c7f0"/>
</svg>
