<svg width="18" height="20" viewBox="0 0 17 20" fill="none" xmlns="http://www.w3.org/2000/svg">
<path d="M8.5 13.6364C8.19896 13.6364 7.94644 13.5491 7.74244 13.3745C7.53844 13.2 7.43679 12.9842 7.4375 12.7273V3.47726L6.48125 4.29544C6.28646 4.46211 6.04279 4.54544 5.75025 4.54544C5.45771 4.54544 5.20554 4.45453 4.99375 4.27272C4.79896 4.0909 4.70156 3.87484 4.70156 3.62453C4.70156 3.37423 4.79896 3.16605 4.99375 2.99999L7.75625 0.636353C7.84479 0.560595 7.95565 0.499989 8.08881 0.454534C8.22198 0.40908 8.35904 0.386353 8.5 0.386353C8.64167 0.386353 8.77908 0.40908 8.91225 0.454534C9.04542 0.499989 9.15592 0.560595 9.24375 0.636353L12.0063 2.99999C12.2188 3.18181 12.325 3.4015 12.325 3.65908C12.325 3.91666 12.2188 4.12878 12.0063 4.29544C11.7938 4.46211 11.5412 4.54544 11.2487 4.54544C10.9561 4.54544 10.7128 4.46211 10.5188 4.29544L9.5625 3.47726V12.7273C9.5625 12.9848 9.4605 13.2009 9.2565 13.3754C9.0525 13.55 8.80034 13.637 8.5 13.6364ZM2.125 20C1.54063 20 1.04019 19.8218 0.623689 19.4654C0.207189 19.1091 -0.000706529 18.6812 1.80391e-06 18.1818V8.18181C1.80391e-06 7.68181 0.208252 7.25362 0.624752 6.89726C1.04125 6.5409 1.54134 6.36302 2.125 6.36362H4.25C4.55104 6.36362 4.80356 6.4509 5.00756 6.62544C5.21156 6.79999 5.31321 7.01575 5.3125 7.27272C5.3125 7.53029 5.2105 7.74635 5.0065 7.9209C4.8025 8.09544 4.55034 8.18241 4.25 8.18181H2.125V18.1818H14.875V8.18181H12.75C12.449 8.18181 12.1964 8.09453 11.9924 7.91999C11.7884 7.74544 11.6868 7.52969 11.6875 7.27272C11.6875 7.01514 11.7895 6.79908 11.9935 6.62453C12.1975 6.44999 12.4497 6.36302 12.75 6.36362H14.875C15.4594 6.36362 15.9598 6.54181 16.3763 6.89817C16.7928 7.25453 17.0007 7.68241 17 8.18181V18.1818C17 18.6818 16.7918 19.11 16.3753 19.4664C15.9588 19.8227 15.4587 20.0006 14.875 20H2.125Z" fill="#BDBEC0"/>
</svg>
