<svg width="20" height="20" viewBox="0 0 20 20" fill="none" xmlns="http://www.w3.org/2000/svg">
<path d="M3.33329 16.6666C2.87496 16.6666 2.48246 16.5033 2.15579 16.1766C1.82913 15.85 1.66607 15.4578 1.66663 15V4.99998C1.66663 4.54165 1.82996 4.14915 2.15663 3.82248C2.48329 3.49581 2.87552 3.33276 3.33329 3.33331H7.64579C7.86802 3.33331 8.07996 3.37498 8.28163 3.45831C8.48329 3.54165 8.66024 3.6597 8.81246 3.81248L9.99996 4.99998H16.6666C17.125 4.99998 17.5175 5.16331 17.8441 5.48998C18.1708 5.81665 18.3338 6.20887 18.3333 6.66665V15C18.3333 15.4583 18.17 15.8508 17.8433 16.1775C17.5166 16.5041 17.1244 16.6672 16.6666 16.6666H3.33329ZM3.33329 4.99998V15H16.6666V6.66665H9.31246L7.64579 4.99998H3.33329Z" fill="#a4c7f0"/>
<line x1="1.99994" y1="8.35" x2="17.9999" y2="8.35" stroke="#a4c7f0" stroke-width="1.3"/>
</svg>
