<svg width="20" height="20" viewBox="0 0 20 20" fill="none" xmlns="http://www.w3.org/2000/svg">
<path d="M9.84334 0.388016L9.84339 0.388067L9.84065 0.390802L0.361521 9.84993C0.199017 10.0207 0.105804 10.2458 0.100008 10.4815C0.0994396 10.5996 0.122137 10.7167 0.166817 10.8261C0.211584 10.9357 0.277538 11.0354 0.360899 11.1195C0.360937 11.1195 0.360975 11.1196 0.361013 11.1196L8.87044 19.629C8.87047 19.6291 8.87051 19.6291 8.87055 19.6291C8.95462 19.7125 9.05432 19.7784 9.16392 19.8232C9.27343 19.8679 9.39068 19.8906 9.50897 19.89C9.74799 19.8866 9.97693 19.7932 10.1501 19.6285L19.6376 10.131C19.6379 10.1307 19.6382 10.1305 19.6384 10.1302C19.8031 9.95706 19.8965 9.72823 19.9 9.4893L19.9 3.49002L19.9 3.48944C19.9007 3.37099 19.878 3.25358 19.8332 3.14392C19.7885 3.03436 19.7225 2.9347 19.6392 2.85064C19.6392 2.85058 19.6391 2.85051 19.639 2.85044L17.1396 0.361015C17.1396 0.361 17.1396 0.360985 17.1395 0.360971C17.0555 0.277578 16.9557 0.211601 16.8461 0.166821C16.7365 0.122033 16.619 0.0993302 16.5006 0.100017H16.5H10.5002C10.3768 0.100435 10.2549 0.126206 10.1419 0.175729C10.0289 0.225274 9.92725 0.297533 9.84334 0.388016ZM9.58077 17.6607L9.51 17.7315L9.43925 17.6607L2.34925 10.5607L2.2786 10.4899L2.34934 10.4193L10.8493 1.92926L10.8786 1.90002H10.92H16.1H16.1414L16.1707 1.92931L18.0707 3.82931L18.1 3.8586V3.90002V9.09002V9.1314L18.0708 9.16069L9.58077 17.6607ZM15.5 4.25169C15.352 4.1528 15.178 4.10002 15 4.10002C14.7613 4.10002 14.5324 4.19484 14.3636 4.36362C14.1948 4.5324 14.1 4.76132 14.1 5.00002C14.1 5.17802 14.1528 5.35203 14.2517 5.50003C14.3506 5.64803 14.4911 5.76339 14.6556 5.83151C14.8201 5.89963 15.001 5.91745 15.1756 5.88272C15.3502 5.848 15.5105 5.76228 15.6364 5.63641C15.7623 5.51055 15.848 5.35018 15.8827 5.1756C15.9174 5.00102 15.8996 4.82006 15.8315 4.6556C15.7634 4.49115 15.648 4.35059 15.5 4.25169Z" fill="#BDBEC0" stroke="#BDBEC0" stroke-width="0.2"/>
</svg>
