<svg width="20" height="20" viewBox="0 0 20 20" fill="none" xmlns="http://www.w3.org/2000/svg">
<path d="M4.375 13.75C4.20924 13.75 4.05027 13.8158 3.93306 13.9331C3.81585 14.0503 3.75 14.2092 3.75 14.375V15.625C3.75 15.7908 3.81585 15.9497 3.93306 16.0669C4.05027 16.1842 4.20924 16.25 4.375 16.25H15.625C15.7908 16.25 15.9497 16.1842 16.0669 16.0669C16.1842 15.9497 16.25 15.7908 16.25 15.625V14.375C16.25 14.2092 16.1842 14.0503 16.0669 13.9331C15.9497 13.8158 15.7908 13.75 15.625 13.75H4.375Z" fill="black"/>
<mask id="path-2-inside-1_101_48" fill="white">
<path d="M2.96875 1.25002C2.58036 1.24854 2.19549 1.32357 1.8361 1.47084C1.47672 1.6181 1.14985 1.83471 0.87418 2.10829C0.598506 2.38188 0.379418 2.70708 0.229426 3.06534C0.0794336 3.42359 0.00147456 3.80789 0 4.19627L0 15.8038C0.00147456 16.1922 0.0794336 16.5764 0.229426 16.9347C0.379418 17.293 0.598506 17.6182 0.87418 17.8917C1.14985 18.1653 1.47672 18.3819 1.8361 18.5292C2.19549 18.6765 2.58036 18.7515 2.96875 18.75H17.0312C17.4196 18.7515 17.8045 18.6765 18.1639 18.5292C18.5233 18.3819 18.8501 18.1653 19.1258 17.8917C19.4015 17.6182 19.6206 17.293 19.7706 16.9347C19.9206 16.5764 19.9985 16.1922 20 15.8038V4.19627C19.9985 3.80789 19.9206 3.42359 19.7706 3.06534C19.6206 2.70708 19.4015 2.38188 19.1258 2.10829C18.8501 1.83471 18.5233 1.6181 18.1639 1.47084C17.8045 1.32357 17.4196 1.24854 17.0312 1.25002H2.96875ZM1.25 4.19627C1.25 3.26502 2.01375 2.50002 2.96875 2.50002H17.0312C17.9862 2.50002 18.75 3.26502 18.75 4.19627V5.00002H1.25V4.19627ZM1.25 6.25002H18.75V15.8038C18.75 16.735 17.9862 17.5 17.0312 17.5H2.96875C2.74452 17.5015 2.52219 17.4588 2.31446 17.3744C2.10672 17.2899 1.91766 17.1654 1.75806 17.0079C1.59846 16.8504 1.47144 16.663 1.38427 16.4564C1.2971 16.2498 1.25147 16.028 1.25 15.8038V6.25002Z"/>
</mask>
<path d="M2.96875 1.25002C2.58036 1.24854 2.19549 1.32357 1.8361 1.47084C1.47672 1.6181 1.14985 1.83471 0.87418 2.10829C0.598506 2.38188 0.379418 2.70708 0.229426 3.06534C0.0794336 3.42359 0.00147456 3.80789 0 4.19627L0 15.8038C0.00147456 16.1922 0.0794336 16.5764 0.229426 16.9347C0.379418 17.293 0.598506 17.6182 0.87418 17.8917C1.14985 18.1653 1.47672 18.3819 1.8361 18.5292C2.19549 18.6765 2.58036 18.7515 2.96875 18.75H17.0312C17.4196 18.7515 17.8045 18.6765 18.1639 18.5292C18.5233 18.3819 18.8501 18.1653 19.1258 17.8917C19.4015 17.6182 19.6206 17.293 19.7706 16.9347C19.9206 16.5764 19.9985 16.1922 20 15.8038V4.19627C19.9985 3.80789 19.9206 3.42359 19.7706 3.06534C19.6206 2.70708 19.4015 2.38188 19.1258 2.10829C18.8501 1.83471 18.5233 1.6181 18.1639 1.47084C17.8045 1.32357 17.4196 1.24854 17.0312 1.25002H2.96875ZM1.25 4.19627C1.25 3.26502 2.01375 2.50002 2.96875 2.50002H17.0312C17.9862 2.50002 18.75 3.26502 18.75 4.19627V5.00002H1.25V4.19627ZM1.25 6.25002H18.75V15.8038C18.75 16.735 17.9862 17.5 17.0312 17.5H2.96875C2.74452 17.5015 2.52219 17.4588 2.31446 17.3744C2.10672 17.2899 1.91766 17.1654 1.75806 17.0079C1.59846 16.8504 1.47144 16.663 1.38427 16.4564C1.2971 16.2498 1.25147 16.028 1.25 15.8038V6.25002Z" fill="black"/>
<path d="M2.96875 1.25002L2.94969 6.24999L2.95922 6.25002H2.96875V1.25002ZM0 4.19627L-4.99996 4.17729L-5 4.18678V4.19627H0ZM0 15.8038H-5V15.8133L-4.99996 15.8228L0 15.8038ZM2.96875 18.75V13.75H2.95922L2.94969 13.7501L2.96875 18.75ZM17.0312 18.75L17.0503 13.7501L17.0408 13.75H17.0312V18.75ZM20 15.8038L25 15.8228L25 15.8133V15.8038H20ZM20 4.19627H25V4.18678L25 4.17729L20 4.19627ZM17.0312 1.25002V6.25002H17.0408L17.0503 6.24999L17.0312 1.25002ZM18.75 5.00002V10H23.75V5.00002H18.75ZM1.25 5.00002H-3.75V10H1.25V5.00002ZM1.25 6.25002V1.25002H-3.75V6.25002H1.25ZM18.75 6.25002H23.75V1.25002H18.75V6.25002ZM2.96875 17.5V12.5H2.95222L2.9357 12.5001L2.96875 17.5ZM1.25 15.8038H-3.75V15.8202L-3.74989 15.8366L1.25 15.8038ZM2.98781 -3.74994C1.94281 -3.75392 0.907262 -3.55204 -0.0597108 -3.15581L3.73192 6.09749C3.48372 6.19919 3.21792 6.25101 2.94969 6.24999L2.98781 -3.74994ZM-0.0597108 -3.15581C-1.02668 -2.75959 -1.90614 -2.17678 -2.64788 -1.44067L4.39624 5.65725C4.20585 5.84619 3.98012 5.99578 3.73192 6.09749L-0.0597108 -3.15581ZM-2.64788 -1.44067C-3.38961 -0.704553 -3.9791 0.170448 -4.38267 1.13438L4.84152 4.9963C4.73793 5.24372 4.58662 5.46831 4.39624 5.65725L-2.64788 -1.44067ZM-4.38267 1.13438C-4.78624 2.09831 -4.996 3.13229 -4.99996 4.17729L4.99996 4.21525C4.99895 4.48348 4.94511 4.74888 4.84152 4.9963L-4.38267 1.13438ZM-5 4.19627V15.8038H5V4.19627H-5ZM-4.99996 15.8228C-4.996 16.8677 -4.78624 17.9017 -4.38267 18.8657L4.84152 15.0037C4.94511 15.2512 4.99895 15.5166 4.99996 15.7848L-4.99996 15.8228ZM-4.38267 18.8657C-3.9791 19.8296 -3.38962 20.7046 -2.64788 21.4407L4.39624 14.3428C4.58663 14.5317 4.73793 14.7563 4.84152 15.0037L-4.38267 18.8657ZM-2.64788 21.4407C-1.90614 22.1768 -1.02668 22.7596 -0.0597108 23.1559L3.73192 13.9026C3.98012 14.0043 4.20585 14.1538 4.39624 14.3428L-2.64788 21.4407ZM-0.0597108 23.1559C0.907265 23.5521 1.94281 23.754 2.98781 23.75L2.94969 13.7501C3.21792 13.749 3.48372 13.8009 3.73192 13.9026L-0.0597108 23.1559ZM2.96875 23.75H17.0312V13.75H2.96875V23.75ZM17.0122 23.75C18.0572 23.754 19.0927 23.5521 20.0597 23.1559L16.2681 13.9026C16.5163 13.8009 16.7821 13.749 17.0503 13.7501L17.0122 23.75ZM20.0597 23.1559C21.0267 22.7596 21.9061 22.1768 22.6479 21.4407L15.6038 14.3428C15.7941 14.1538 16.0199 14.0043 16.2681 13.9026L20.0597 23.1559ZM22.6479 21.4407C23.3896 20.7046 23.9791 19.8296 24.3827 18.8657L15.1585 15.0037C15.2621 14.7563 15.4134 14.5317 15.6038 14.3428L22.6479 21.4407ZM24.3827 18.8657C24.7862 17.9017 24.996 16.8677 25 15.8228L15 15.7848C15.0011 15.5166 15.0549 15.2512 15.1585 15.0037L24.3827 18.8657ZM25 15.8038V4.19627H15V15.8038H25ZM25 4.17729C24.996 3.1323 24.7862 2.09831 24.3827 1.13438L15.1585 4.9963C15.0549 4.74888 15.0011 4.48348 15 4.21525L25 4.17729ZM24.3827 1.13438C23.9791 0.170443 23.3896 -0.704557 22.6479 -1.44067L15.6038 5.65725C15.4134 5.46831 15.2621 5.24372 15.1585 4.9963L24.3827 1.13438ZM22.6479 -1.44067C21.9061 -2.17678 21.0267 -2.75959 20.0597 -3.15581L16.2681 6.09749C16.0199 5.99578 15.7941 5.84619 15.6038 5.65725L22.6479 -1.44067ZM20.0597 -3.15581C19.0927 -3.55204 18.0572 -3.75392 17.0122 -3.74994L17.0503 6.24999C16.7821 6.25101 16.5163 6.19919 16.2681 6.09749L20.0597 -3.15581ZM17.0312 -3.74998H2.96875V6.25002H17.0312V-3.74998ZM6.25 4.19627C6.25 6.06688 4.73456 7.50002 2.96875 7.50002V-2.49998C-0.707062 -2.49998 -3.75 0.46316 -3.75 4.19627H6.25ZM2.96875 7.50002H17.0312V-2.49998H2.96875V7.50002ZM17.0312 7.50002C15.2654 7.50002 13.75 6.06688 13.75 4.19627H23.75C23.75 0.46316 20.7071 -2.49998 17.0312 -2.49998V7.50002ZM13.75 4.19627V5.00002H23.75V4.19627H13.75ZM18.75 2.11e-05H1.25V10H18.75V2.11e-05ZM6.25 5.00002V4.19627H-3.75V5.00002H6.25ZM1.25 11.25H18.75V1.25002H1.25V11.25ZM13.75 6.25002V15.8038H23.75V6.25002H13.75ZM13.75 15.8038C13.75 13.9332 15.2654 12.5 17.0312 12.5V22.5C20.7071 22.5 23.75 19.5369 23.75 15.8038H13.75ZM17.0312 12.5H2.96875V22.5H17.0312V12.5ZM2.9357 12.5001C3.36808 12.4973 3.79679 12.5796 4.19735 12.7424L0.431565 22.0063C1.24758 22.338 2.12095 22.5057 3.0018 22.4999L2.9357 12.5001ZM4.19735 12.7424C4.59791 12.9053 4.96247 13.1454 5.27022 13.4491L-1.7541 20.5666C-1.12715 21.1854 -0.384456 21.6746 0.431565 22.0063L4.19735 12.7424ZM5.27022 13.4491C5.57798 13.7528 5.82289 14.1142 5.99098 14.5126L-3.22244 18.4001C-2.88 19.2117 -2.38106 19.9479 -1.7541 20.5666L5.27022 13.4491ZM5.99098 14.5126C6.15907 14.911 6.24705 15.3386 6.24989 15.7709L-3.74989 15.8366C-3.74411 16.7175 -3.56488 17.5885 -3.22244 18.4001L5.99098 14.5126ZM6.25 15.8038V6.25002H-3.75V15.8038H6.25Z" fill="black" mask="url(#path-2-inside-1_101_48)"/>
</svg>
