<svg width="136" height="136" viewBox="0 0 136 136" fill="none" xmlns="http://www.w3.org/2000/svg">
<circle cx="68" cy="68" r="68" fill="#D9D9D9"/>
<path d="M63.844 34.1603C55.9992 35.1155 49.0232 38.1171 42.952 43.1651C39.9848 45.6211 36.8296 49.2875 34.7144 52.7331C32.9064 55.7003 31.116 59.8787 30.2288 63.3067C26.8688 76.2171 30.536 90.6283 39.5576 100.008C41.1096 101.611 41.86 102.003 43.02 101.782C44.504 101.509 45.8856 99.7867 45.8856 98.2347C45.8856 97.2459 45.732 96.9899 43.856 94.9435C40.4792 91.2771 37.7672 86.1603 36.4712 81.0611C35.5504 77.4107 35.2944 72.0899 35.8576 68.4227C38.876 49.0147 57.6704 36.6499 76.6352 41.5955C85.6056 43.9323 93.2296 50.1395 97.4416 58.5307C103.786 71.1683 101.398 86.0059 91.3704 96.3067C90.1592 97.5515 89.8528 98.0971 89.8528 99.0011C89.8696 100.331 91.2344 102.003 92.616 102.361C93.8952 102.719 94.4752 102.412 96.5048 100.348C101.894 94.8571 105.424 87.9155 106.942 79.8483C107.437 77.1875 107.556 71.2867 107.181 68.2851C106.618 63.8691 105.424 59.9811 103.411 55.8875C101.279 51.5387 98.9432 48.3491 95.464 44.9723C89.1536 38.8835 81.104 35.0979 72.4232 34.1595C70.496 33.9379 65.584 33.9555 63.844 34.1603Z" fill="black"/>
<path d="M64.4752 44.7506C60.1264 45.2962 55.2656 47.2234 51.428 49.9522C49.6032 51.2314 46.38 54.4714 45.0664 56.3138C40.052 63.3402 38.3808 71.7826 40.3936 80.0026C41.4848 84.437 43.3952 88.1546 46.4136 91.753C48.0848 93.7658 48.904 94.209 50.2848 93.8338C51.6832 93.4586 52.9968 91.7874 53.0136 90.3714C53.0136 89.5354 52.8944 89.3138 51.3256 87.4378C48.324 83.7882 46.6016 79.661 46.2264 75.1754C45.2712 63.8514 52.6904 53.8738 63.8096 51.5202C66.0952 51.0258 70.3072 50.9914 72.3712 51.4346C77.1128 52.477 80.6088 54.3698 83.9008 57.661C87.9088 61.7026 90.0064 66.461 90.296 72.1746C90.6032 78.0242 88.488 83.7714 84.412 88.257C83.2352 89.553 83.0304 89.9626 83.0304 90.9514C83.0304 92.5882 84.7528 94.345 86.356 94.345C87.2944 94.345 87.976 93.9698 89.1192 92.793C92.5816 89.2114 95.208 84.1466 96.3672 78.825C96.6912 77.2562 96.7424 76.557 96.7424 73.197C96.7424 68.8994 96.5376 67.4666 95.3784 64.005C92.0016 53.8586 82.9288 46.3202 72.2864 44.8018C70.3248 44.529 66.4536 44.4954 64.4752 44.7506Z" fill="black"/>
<path d="M64.6968 55.4612C60.7568 56.314 57.8064 57.9684 55.0952 60.8332C51.8376 64.2956 50.252 68.2516 50.2176 73.0276C50.2008 75.586 50.4056 76.9676 51.1728 79.1676C52.0592 81.6916 54.1064 84.9492 55.2832 85.6652C56.9032 86.6372 59.4272 85.3924 60.0072 83.3284C60.3144 82.2708 60.1264 81.6228 59.1376 80.2756C57.3296 77.8196 56.6992 75.7564 56.8008 72.686C56.92 69.4796 57.8752 67.3308 60.1776 65.0116C62.3776 62.7948 65.0384 61.7028 68.1936 61.7028C71.5192 61.7028 73.8728 62.6748 76.2264 65.0116C78.4264 67.1772 79.5184 69.4628 79.74 72.3452C79.9272 74.818 79.1256 77.7684 77.7448 79.6788C76.176 81.8452 76.1416 81.8956 76.1416 82.7316C76.1416 84.9484 78.6656 86.8756 80.5248 86.0916C82.2648 85.3756 84.7888 81.2988 85.7952 77.5812C86.1192 76.3876 86.1704 75.7396 86.1872 73.198C86.1872 70.4868 86.136 70.0604 85.7264 68.5932C83.9016 62.0444 79.1264 57.3716 72.4576 55.5972C70.5296 55.086 66.7264 55.018 64.6968 55.4612Z" fill="black"/>
<path d="M66.3176 65.8307C64.9704 66.1891 63.9296 66.7859 62.924 67.7747C61.2696 69.4115 60.6216 71.1003 60.724 73.5395C60.7752 74.9211 60.8608 75.3299 61.3208 76.3027C62.856 79.5771 66.284 81.3507 69.6944 80.6347C71.2632 80.3107 72.4744 79.6627 73.6 78.5539C76.5672 75.6203 76.5848 70.8619 73.6168 67.8603C72.5424 66.7691 71.0584 65.9843 69.5752 65.6947C68.3296 65.4555 67.6304 65.4891 66.3176 65.8307Z" fill="black"/>
</svg>
