<svg width="15" height="24" viewBox="0 0 15 24" fill="none" xmlns="http://www.w3.org/2000/svg">
<path d="M1.35423 20.0834L9.43756 12.0001L1.35423 3.91673C1.16135 3.72385 1.00835 3.49487 0.903963 3.24286C0.799577 2.99085 0.74585 2.72075 0.74585 2.44798C0.74585 2.1752 0.799577 1.9051 0.903963 1.65309C1.00835 1.40109 1.16135 1.17211 1.35423 0.979226C1.54711 0.786347 1.77609 0.633347 2.02809 0.528962C2.2801 0.424576 2.5502 0.37085 2.82298 0.37085C3.09575 0.37085 3.36585 0.424576 3.61786 0.528962C3.86987 0.633347 4.09885 0.786347 4.29173 0.979226L13.8542 10.5417C14.6667 11.3542 14.6667 12.6667 13.8542 13.4792L4.29173 23.0417C4.09899 23.2349 3.87005 23.3881 3.61803 23.4926C3.366 23.5972 3.09583 23.651 2.82298 23.651C2.55013 23.651 2.27995 23.5972 2.02793 23.4926C1.7759 23.3881 1.54696 23.2349 1.35423 23.0417C0.56256 22.2292 0.541726 20.8959 1.35423 20.0834Z" fill="#3A292B"/>
</svg>
