<svg width="136" height="136" viewBox="0 0 136 136" fill="none" xmlns="http://www.w3.org/2000/svg">
<circle cx="68" cy="68" r="68" fill="#D9D9D9"/>
<path d="M59.25 34.2162C59.6771 34.7351 59.9387 35.3702 60.0011 36.0394C60.0635 36.7085 59.9238 37.381 59.6 37.97C57.0706 42.6139 55.7497 47.8194 55.7588 53.1075C55.7588 70.6993 70.1 84.9443 87.775 84.9443C90.0806 84.9443 92.325 84.7037 94.4819 84.2443C95.1431 84.1012 95.8318 84.1559 96.462 84.4018C97.0922 84.6477 97.6361 85.0737 98.0256 85.6268C98.4368 86.2019 98.6465 86.8968 98.6219 87.6033C98.5974 88.3099 98.3401 88.9885 97.89 89.5337C94.4586 93.7487 90.1298 97.1449 85.2193 99.4745C80.3087 101.804 74.9401 103.009 69.505 103C49.3362 103 33 86.7512 33 66.7312C33 51.6637 42.2488 38.74 55.4175 33.2625C56.0735 32.9852 56.8017 32.9283 57.4928 33.1003C58.1839 33.2723 58.8005 33.6639 59.25 34.2162Z" fill="black"/>
</svg>
