<svg width="61" height="45" viewBox="0 0 61 45" fill="none" xmlns="http://www.w3.org/2000/svg">
<mask id="path-1-inside-1_3_29" fill="white">
<path fill-rule="evenodd" clip-rule="evenodd" d="M5 0C2.23858 0 0 2.23858 0 5V30C0 32.7614 2.23858 35 5 35H11V40C11 42.7614 13.2386 45 16 45H51C53.7614 45 56 42.7614 56 40V15C56 12.2386 53.7614 10 51 10H45V5C45 2.23858 42.7614 0 40 0H5Z"/>
</mask>
<path d="M11 35H15.5V30.5H11V35ZM45 10H40.5V14.5H45V10ZM4.5 5C4.5 4.72386 4.72386 4.5 5 4.5V-4.5C-0.246704 -4.5 -4.5 -0.246706 -4.5 5H4.5ZM4.5 30V5H-4.5V30H4.5ZM5 30.5C4.72386 30.5 4.5 30.2761 4.5 30H-4.5C-4.5 35.2467 -0.246705 39.5 5 39.5V30.5ZM11 30.5H5V39.5H11V30.5ZM15.5 40V35H6.5V40H15.5ZM16 40.5C15.7239 40.5 15.5 40.2761 15.5 40H6.5C6.5 45.2467 10.7533 49.5 16 49.5V40.5ZM51 40.5H16V49.5H51V40.5ZM51.5 40C51.5 40.2761 51.2761 40.5 51 40.5V49.5C56.2467 49.5 60.5 45.2467 60.5 40H51.5ZM51.5 15V40H60.5V15H51.5ZM51 14.5C51.2761 14.5 51.5 14.7239 51.5 15H60.5C60.5 9.7533 56.2467 5.5 51 5.5V14.5ZM45 14.5H51V5.5H45V14.5ZM40.5 5V10H49.5V5H40.5ZM40 4.5C40.2761 4.5 40.5 4.72386 40.5 5H49.5C49.5 -0.246704 45.2467 -4.5 40 -4.5V4.5ZM5 4.5H40V-4.5H5V4.5Z" fill="black" mask="url(#path-1-inside-1_3_29)"/>
<path d="M16 12.25H51C52.5188 12.25 53.75 13.4812 53.75 15V40C53.75 41.5188 52.5188 42.75 51 42.75H16C14.4812 42.75 13.25 41.5188 13.25 40V15C13.25 13.4812 14.4812 12.25 16 12.25Z" stroke="black" stroke-width="4.5"/>
</svg>
