<svg width="100" height="100" viewBox="0 0 100 100" fill="#D0D0D3" xmlns="http://www.w3.org/2000/svg">
<path d="M4.16666 57.7375V42.2625C4.16666 40.0524 5.04463 37.9328 6.60743 36.37C8.17024 34.8072 10.2899 33.9292 12.5 33.9292H24.5833C25.398 33.929 26.1947 33.69 26.875 33.2417L51.875 16.7583C52.5031 16.3447 53.2315 16.1088 53.9829 16.0756C54.7343 16.0424 55.4806 16.2132 56.1428 16.57C56.8049 16.9267 57.3582 17.4559 57.7438 18.1016C58.1295 18.7473 58.3332 19.4854 58.3333 20.2375V79.7625C58.3332 80.5146 58.1295 81.2527 57.7438 81.8984C57.3582 82.5441 56.8049 83.0734 56.1428 83.4301C55.4806 83.7868 54.7343 83.9576 53.9829 83.9244C53.2315 83.8913 52.5031 83.6553 51.875 83.2417L26.875 66.7583C26.1947 66.3101 25.398 66.0711 24.5833 66.0708H12.5C10.2899 66.0708 8.17024 65.1929 6.60743 63.6301C5.04463 62.0673 4.16666 59.9477 4.16666 57.7375Z" stroke="#D0D0D3" stroke-width="6.25"/>
<path d="M72.9167 31.25C72.9167 31.25 79.1667 37.5 79.1667 47.9167C79.1667 58.3333 72.9167 64.5833 72.9167 64.5833M85.4167 18.75C85.4167 18.75 95.8333 29.1667 95.8333 47.9167C95.8333 66.6667 85.4167 77.0833 85.4167 77.0833" stroke="#D0D0D3" stroke-width="6.25" stroke-linecap="round" stroke-linejoin="round"/>
</svg>
