<svg width="82" height="82" viewBox="0 0 82 82" fill="none" xmlns="http://www.w3.org/2000/svg">
<path d="M41 0.375C41.8288 0.375 42.6237 0.70424 43.2097 1.29029C43.7958 1.87634 44.125 2.6712 44.125 3.5V12.875C44.125 13.7038 43.7958 14.4987 43.2097 15.0847C42.6237 15.6708 41.8288 16 41 16C40.1712 16 39.3763 15.6708 38.7903 15.0847C38.2042 14.4987 37.875 13.7038 37.875 12.875V3.5C37.875 2.6712 38.2042 1.87634 38.7903 1.29029C39.3763 0.70424 40.1712 0.375 41 0.375ZM22.25 41C22.25 36.0272 24.2254 31.2581 27.7417 27.7417C31.2581 24.2254 36.0272 22.25 41 22.25C45.9728 22.25 50.7419 24.2254 54.2582 27.7417C57.7746 31.2581 59.75 36.0272 59.75 41C59.75 45.9728 57.7746 50.7419 54.2582 54.2582C50.7419 57.7746 45.9728 59.75 41 59.75C36.0272 59.75 31.2581 57.7746 27.7417 54.2582C24.2254 50.7419 22.25 45.9728 22.25 41ZM69.725 16.6917C70.277 16.0993 70.5775 15.3157 70.5632 14.5062C70.5489 13.6966 70.221 12.9241 69.6484 12.3516C69.0759 11.779 68.3034 11.4511 67.4938 11.4368C66.6843 11.4225 65.9007 11.723 65.3083 12.275L58.6792 18.9C58.3806 19.1881 58.1423 19.5328 57.9784 19.914C57.8144 20.2952 57.728 20.7052 57.7242 21.1202C57.7204 21.5351 57.7993 21.9466 57.9562 22.3308C58.1132 22.7149 58.3451 23.0639 58.6383 23.3575C58.9316 23.651 59.2804 23.8832 59.6644 24.0405C60.0484 24.1978 60.4598 24.2771 60.8748 24.2737C61.2897 24.2703 61.6998 24.1843 62.0811 24.0207C62.4625 23.8571 62.8074 23.6192 63.0958 23.3208L69.725 16.6917ZM81.625 41C81.625 41.8288 81.2958 42.6237 80.7097 43.2097C80.1237 43.7958 79.3288 44.125 78.5 44.125H69.125C68.2962 44.125 67.5013 43.7958 66.9153 43.2097C66.3292 42.6237 66 41.8288 66 41C66 40.1712 66.3292 39.3763 66.9153 38.7903C67.5013 38.2042 68.2962 37.875 69.125 37.875H78.5C79.3288 37.875 80.1237 38.2042 80.7097 38.7903C81.2958 39.3763 81.625 40.1712 81.625 41ZM65.3083 69.725C65.9007 70.277 66.6843 70.5775 67.4938 70.5632C68.3034 70.5489 69.0759 70.221 69.6484 69.6484C70.221 69.0759 70.5489 68.3034 70.5632 67.4938C70.5775 66.6843 70.277 65.9007 69.725 65.3083L63.1 58.6792C62.8119 58.3806 62.4672 58.1423 62.086 57.9784C61.7048 57.8144 61.2948 57.728 60.8798 57.7242C60.4649 57.7204 60.0534 57.7993 59.6692 57.9562C59.2851 58.1132 58.9361 58.3451 58.6425 58.6383C58.349 58.9316 58.1168 59.2804 57.9595 59.6644C57.8022 60.0484 57.7229 60.4598 57.7263 60.8748C57.7297 61.2897 57.8157 61.6998 57.9793 62.0811C58.1429 62.4625 58.3808 62.8074 58.6792 63.0958L65.3083 69.725ZM41 66C41.8288 66 42.6237 66.3292 43.2097 66.9153C43.7958 67.5013 44.125 68.2962 44.125 69.125V78.5C44.125 79.3288 43.7958 80.1237 43.2097 80.7097C42.6237 81.2958 41.8288 81.625 41 81.625C40.1712 81.625 39.3763 81.2958 38.7903 80.7097C38.2042 80.1237 37.875 79.3288 37.875 78.5V69.125C37.875 68.2962 38.2042 67.5013 38.7903 66.9153C39.3763 66.3292 40.1712 66 41 66ZM23.325 63.0958C23.894 62.5062 24.2086 61.7166 24.2011 60.8973C24.1936 60.0779 23.8646 59.2943 23.2849 58.7151C22.7052 58.136 21.9213 57.8077 21.1019 57.801C20.2825 57.7943 19.4933 58.1096 18.9042 58.6792L12.275 65.3042C11.7055 65.8933 11.3901 66.6825 11.3968 67.5019C11.4036 68.3213 11.7319 69.1052 12.311 69.6849C12.8901 70.2646 13.6738 70.5936 14.4931 70.6011C15.3125 70.6086 16.102 70.294 16.6917 69.725L23.3208 63.1L23.325 63.0958ZM16 41C16 41.8288 15.6708 42.6237 15.0847 43.2097C14.4987 43.7958 13.7038 44.125 12.875 44.125H3.5C2.6712 44.125 1.87634 43.7958 1.29029 43.2097C0.70424 42.6237 0.375 41.8288 0.375 41C0.375 40.1712 0.70424 39.3763 1.29029 38.7903C1.87634 38.2042 2.6712 37.875 3.5 37.875H12.875C13.7038 37.875 14.4987 38.2042 15.0847 38.7903C15.6708 39.3763 16 40.1712 16 41ZM18.9042 23.3208C19.4966 23.8728 20.2801 24.1733 21.0897 24.1591C21.8993 24.1448 22.6717 23.8168 23.2443 23.2443C23.8168 22.6717 24.1448 21.8993 24.1591 21.0897C24.1733 20.2801 23.8728 19.4966 23.3208 18.9042L16.6958 12.275C16.1067 11.7055 15.3175 11.3901 14.4981 11.3968C13.6787 11.4036 12.8948 11.7319 12.3151 12.311C11.7354 12.8901 11.4064 13.6738 11.3989 14.4931C11.3914 15.3125 11.706 16.102 12.275 16.6917L18.9042 23.3208Z" fill="#D0D0D3"/>
</svg>
