<svg width="136" height="136" viewBox="0 0 136 136" fill="none" xmlns="http://www.w3.org/2000/svg">
<circle cx="68" cy="68" r="68" fill="#D9D9D9"/>
<path d="M49.1667 79.1666L42.1667 71.9999C45.4444 68.7221 49.2922 66.1255 53.71 64.2099C58.1278 62.2944 62.8911 61.3355 68 61.3333C73.1111 61.3333 77.8756 62.3055 82.2933 64.2499C86.7111 66.1944 90.5578 68.8332 93.8333 72.1666L86.8333 79.1666C84.3889 76.7221 81.5556 74.8055 78.3333 73.4166C75.1111 72.0277 71.6667 71.3332 68 71.3332C64.3333 71.3332 60.8889 72.0277 57.6667 73.4166C54.4444 74.8055 51.6111 76.7221 49.1667 79.1666ZM35 64.9999L28 57.9999C33.1111 52.7777 39.0833 48.6944 45.9167 45.7499C52.75 42.8055 60.1111 41.3333 68 41.3333C75.8889 41.3333 83.25 42.8055 90.0833 45.7499C96.9167 48.6944 102.889 52.7777 108 57.9999L101 64.9999C96.7222 60.7221 91.7633 57.3744 86.1233 54.9566C80.4833 52.5388 74.4422 51.331 68 51.3333C61.5556 51.3333 55.5133 52.5421 49.8733 54.9599C44.2333 57.3777 39.2756 60.7244 35 64.9999ZM68 97.9999L79.75 86.1666C78.25 84.6666 76.5 83.4855 74.5 82.6232C72.5 81.761 70.3333 81.331 68 81.3332C65.6667 81.3332 63.5 81.7644 61.5 82.6266C59.5 83.4888 57.75 84.6688 56.25 86.1666L68 97.9999Z" fill="black"/>
</svg>
